<svg width="16" height="15" viewBox="0 0 16 15" fill="none" xmlns="http://www.w3.org/2000/svg">
<path d="M9.42197 13.7785C8.11013 14.13 6.72114 14.0618 5.45007 13.5834C4.179 13.105 3.08971 12.2405 2.33518 11.1112C1.58065 9.98196 1.19879 8.64473 1.24323 7.28733C1.28766 5.92992 1.75617 4.62053 2.58293 3.54305C3.4097 2.46557 4.5532 1.67413 5.85284 1.27989C7.15247 0.885643 8.54295 0.908397 9.82899 1.34495C11.115 1.78151 12.232 2.60994 13.0231 3.71389C13.8142 4.81785 14.2396 6.14187 14.2396 7.5L14.2397 8.58333C14.2397 9.58051 13.4314 10.3889 12.4342 10.3889C11.437 10.3889 10.6287 9.58051 10.6287 8.58333V5.33333M10.6283 7.49996C10.6283 9.09545 9.33497 10.3888 7.7395 10.3888C6.14403 10.3888 4.85065 9.09545 4.85065 7.49996C4.85065 5.90447 6.14403 4.61107 7.7395 4.61107C9.33497 4.61107 10.6283 5.90447 10.6283 7.49996Z" stroke="#FF3C4B" stroke-width="2" stroke-linecap="round"/>
</svg>
