<svg width="21" height="21" viewBox="0 0 21 21" fill="none" xmlns="http://www.w3.org/2000/svg">
<path fill-rule="evenodd" clip-rule="evenodd" d="M11 14.5C11 16.9833 8.98515 19 6.49878 19C4.01485 19 2 16.9833 2 14.5C2 12.0167 4.01485 10 6.49878 10C8.98515 10 11 12.0167 11 14.5Z" fill="#FFDCDF"/>
<path d="M16 5L18 7L15 10L13 8M9.69147 11.3086L19.0001 2M11 14.5C11 16.9833 8.98515 19 6.49878 19C4.01485 19 2 16.9833 2 14.5C2 12.0167 4.01485 10 6.49878 10C8.98515 10 11 12.0167 11 14.5Z" stroke="#FF3C4B" stroke-width="2.1" stroke-linecap="round" stroke-linejoin="round"/>
</svg>
