<svg width="100" height="100" viewBox="0 0 100 100" fill="none" xmlns="http://www.w3.org/2000/svg">
<g style="mix-blend-mode:exclusion">
<circle cx="50" cy="50" r="50" fill="#D9D9D9"/>
</g>
<g style="mix-blend-mode:exclusion">
<circle cx="50" cy="50" r="40" fill="white"/>
</g>
<path d="M20.5568 50V41.2727H21.6136V49.0625H25.6705V50H20.5568ZM34.3306 45.6364C34.3306 46.5568 34.1644 47.3523 33.832 48.0227C33.4996 48.6932 33.0437 49.2102 32.4641 49.5739C31.8846 49.9375 31.2227 50.1193 30.4783 50.1193C29.734 50.1193 29.0721 49.9375 28.4925 49.5739C27.913 49.2102 27.457 48.6932 27.1246 48.0227C26.7923 47.3523 26.6261 46.5568 26.6261 45.6364C26.6261 44.7159 26.7923 43.9205 27.1246 43.25C27.457 42.5795 27.913 42.0625 28.4925 41.6989C29.0721 41.3352 29.734 41.1534 30.4783 41.1534C31.2227 41.1534 31.8846 41.3352 32.4641 41.6989C33.0437 42.0625 33.4996 42.5795 33.832 43.25C34.1644 43.9205 34.3306 44.7159 34.3306 45.6364ZM33.3079 45.6364C33.3079 44.8807 33.1815 44.2429 32.9286 43.723C32.6786 43.2031 32.3391 42.8097 31.9102 42.5426C31.484 42.2756 31.0067 42.142 30.4783 42.142C29.9499 42.142 29.4712 42.2756 29.0423 42.5426C28.6161 42.8097 28.2766 43.2031 28.0238 43.723C27.7738 44.2429 27.6488 44.8807 27.6488 45.6364C27.6488 46.392 27.7738 47.0298 28.0238 47.5497C28.2766 48.0696 28.6161 48.4631 29.0423 48.7301C29.4712 48.9972 29.9499 49.1307 30.4783 49.1307C31.0067 49.1307 31.484 48.9972 31.9102 48.7301C32.3391 48.4631 32.6786 48.0696 32.9286 47.5497C33.1815 47.0298 33.3079 46.392 33.3079 45.6364ZM42.0735 44C41.9798 43.7131 41.8562 43.456 41.7028 43.2287C41.5522 42.9986 41.3718 42.8026 41.1616 42.6406C40.9542 42.4787 40.7184 42.3551 40.4542 42.2699C40.19 42.1847 39.9002 42.142 39.5849 42.142C39.0678 42.142 38.5977 42.2756 38.1744 42.5426C37.7511 42.8097 37.4144 43.2031 37.1644 43.723C36.9144 44.2429 36.7894 44.8807 36.7894 45.6364C36.7894 46.392 36.9158 47.0298 37.1687 47.5497C37.4215 48.0696 37.7638 48.4631 38.1957 48.7301C38.6275 48.9972 39.1133 49.1307 39.6531 49.1307C40.1531 49.1307 40.5934 49.0241 40.9741 48.8111C41.3576 48.5952 41.6559 48.2912 41.869 47.8991C42.0849 47.5043 42.1928 47.0398 42.1928 46.5057L42.5167 46.5739H39.8917V45.6364H43.2156V46.5739C43.2156 47.2926 43.0621 47.9176 42.7553 48.4489C42.4513 48.9801 42.0309 49.392 41.494 49.6847C40.9599 49.9744 40.3462 50.1193 39.6531 50.1193C38.8803 50.1193 38.2013 49.9375 37.6161 49.5739C37.0337 49.2102 36.5792 48.6932 36.2525 48.0227C35.9286 47.3523 35.7667 46.5568 35.7667 45.6364C35.7667 44.946 35.859 44.3253 36.0437 43.7741C36.2312 43.2202 36.4954 42.7486 36.8363 42.3594C37.1772 41.9702 37.5806 41.6719 38.0465 41.4645C38.5124 41.2571 39.0252 41.1534 39.5849 41.1534C40.0451 41.1534 40.4741 41.223 40.8718 41.3622C41.2724 41.4986 41.6289 41.6932 41.9414 41.946C42.2567 42.196 42.5195 42.4957 42.7298 42.8452C42.94 43.1918 43.0849 43.5767 43.1644 44H42.0735ZM52.3892 45.6364C52.3892 46.5568 52.223 47.3523 51.8906 48.0227C51.5582 48.6932 51.1023 49.2102 50.5227 49.5739C49.9432 49.9375 49.2813 50.1193 48.5369 50.1193C47.7926 50.1193 47.1307 49.9375 46.5511 49.5739C45.9716 49.2102 45.5156 48.6932 45.1832 48.0227C44.8509 47.3523 44.6847 46.5568 44.6847 45.6364C44.6847 44.7159 44.8509 43.9205 45.1832 43.25C45.5156 42.5795 45.9716 42.0625 46.5511 41.6989C47.1307 41.3352 47.7926 41.1534 48.5369 41.1534C49.2813 41.1534 49.9432 41.3352 50.5227 41.6989C51.1023 42.0625 51.5582 42.5795 51.8906 43.25C52.223 43.9205 52.3892 44.7159 52.3892 45.6364ZM51.3665 45.6364C51.3665 44.8807 51.2401 44.2429 50.9872 43.723C50.7372 43.2031 50.3977 42.8097 49.9688 42.5426C49.5426 42.2756 49.0653 42.142 48.5369 42.142C48.0085 42.142 47.5298 42.2756 47.1009 42.5426C46.6747 42.8097 46.3352 43.2031 46.0824 43.723C45.8324 44.2429 45.7074 44.8807 45.7074 45.6364C45.7074 46.392 45.8324 47.0298 46.0824 47.5497C46.3352 48.0696 46.6747 48.4631 47.1009 48.7301C47.5298 48.9972 48.0085 49.1307 48.5369 49.1307C49.0653 49.1307 49.5426 48.9972 49.9688 48.7301C50.3977 48.4631 50.7372 48.0696 50.9872 47.5497C51.2401 47.0298 51.3665 46.392 51.3665 45.6364ZM57.8991 50H56.7912L59.9957 41.2727H61.0866L64.2912 50H63.1832L60.5753 42.6534H60.5071L57.8991 50ZM58.3082 46.5909H62.7741V47.5284H58.3082V46.5909ZM65.6506 50V41.2727H68.5994C69.2841 41.2727 69.8438 41.3963 70.2784 41.6435C70.7159 41.8878 71.0398 42.2188 71.25 42.6364C71.4602 43.054 71.5653 43.5199 71.5653 44.0341C71.5653 44.5483 71.4602 45.0156 71.25 45.4361C71.0426 45.8565 70.7216 46.1918 70.2869 46.4418C69.8523 46.6889 69.2955 46.8125 68.6165 46.8125H66.5028V45.875H68.5824C69.0511 45.875 69.4276 45.794 69.7116 45.6321C69.9957 45.4702 70.2017 45.2514 70.3295 44.9759C70.4602 44.6974 70.5256 44.3835 70.5256 44.0341C70.5256 43.6847 70.4602 43.3722 70.3295 43.0966C70.2017 42.821 69.9943 42.6051 69.7074 42.4489C69.4205 42.2898 69.0398 42.2102 68.5653 42.2102H66.7074V50H65.6506ZM73.2678 50V41.2727H76.2166C76.9013 41.2727 77.4609 41.3963 77.8956 41.6435C78.3331 41.8878 78.657 42.2188 78.8672 42.6364C79.0774 43.054 79.1825 43.5199 79.1825 44.0341C79.1825 44.5483 79.0774 45.0156 78.8672 45.4361C78.6598 45.8565 78.3388 46.1918 77.9041 46.4418C77.4695 46.6889 76.9126 46.8125 76.2337 46.8125H74.12V45.875H76.1996C76.6683 45.875 77.0447 45.794 77.3288 45.6321C77.6129 45.4702 77.8189 45.2514 77.9467 44.9759C78.0774 44.6974 78.1428 44.3835 78.1428 44.0341C78.1428 43.6847 78.0774 43.3722 77.9467 43.0966C77.8189 42.821 77.6115 42.6051 77.3246 42.4489C77.0376 42.2898 76.657 42.2102 76.1825 42.2102H74.3246V50H73.2678Z" fill="white"/>
</svg>
