<svg width="23" height="23" viewBox="0 0 23 23" fill="none" xmlns="http://www.w3.org/2000/svg">
<g id="View_fill">
<path id="Subtract" fill-rule="evenodd" clip-rule="evenodd" d="M19.4586 11.0668C19.4586 10.7044 19.2632 10.4702 18.8724 10.0018C17.5385 8.4027 14.7115 5.56677 11.4397 5.56677C8.16795 5.56677 5.34101 8.4027 4.00706 10.0018C3.61629 10.4702 3.4209 10.7044 3.4209 11.0668C3.4209 11.4291 3.61629 11.6633 4.00706 12.1318C5.34101 13.7308 8.16796 16.5668 11.4397 16.5668C14.7115 16.5668 17.5385 13.7308 18.8724 12.1318C19.2632 11.6633 19.4586 11.4291 19.4586 11.0668ZM11.4397 13.8168C12.9585 13.8168 14.1897 12.5856 14.1897 11.0668C14.1897 9.54799 12.9585 8.31677 11.4397 8.31677C9.92095 8.31677 8.68973 9.54799 8.68973 11.0668C8.68973 12.5856 9.92095 13.8168 11.4397 13.8168Z" fill="#00529C"/>
</g>
</svg>
