<svg width="13" height="13" viewBox="0 0 13 13" fill="none" xmlns="http://www.w3.org/2000/svg">
<path d="M13.0065 0.993523C13.0065 0.441238 12.5588 -0.00647736 12.0065 -0.00647732L3.00647 -0.00647741C2.45419 -0.00647741 2.00647 0.441238 2.00647 0.993523C2.00647 1.54581 2.45419 1.99352 3.00647 1.99352L11.0065 1.99352L11.0065 9.99352C11.0065 10.5458 11.4542 10.9935 12.0065 10.9935C12.5588 10.9935 13.0065 10.5458 13.0065 9.99352L13.0065 0.993523ZM0.286404 11.2994C-0.10412 11.6899 -0.104121 12.3231 0.286404 12.7136C0.676928 13.1041 1.31009 13.1041 1.70062 12.7136L0.286404 11.2994ZM11.2994 0.286416L0.286404 11.2994L1.70062 12.7136L12.7136 1.70063L11.2994 0.286416Z" fill="#FF3C4B"/>
</svg>
