<svg width="19" height="16" viewBox="0 0 19 16" fill="none" xmlns="http://www.w3.org/2000/svg">
<path d="M1.00554 7.29289C0.615015 7.68342 0.615015 8.31658 1.00554 8.70711L7.3695 15.0711C7.76003 15.4616 8.39319 15.4616 8.78371 15.0711C9.17424 14.6805 9.17424 14.0474 8.78371 13.6569L3.12686 8L8.78371 2.34315C9.17424 1.95262 9.17424 1.31946 8.78371 0.928932C8.39319 0.538408 7.76003 0.538408 7.3695 0.928932L1.00554 7.29289ZM17.2873 9C17.8396 9 18.2873 8.55228 18.2873 8C18.2873 7.44772 17.8396 7 17.2873 7V9ZM1.71265 9H17.2873V7L1.71265 7V9Z" fill="#FF3C4B"/>
</svg>
